<svg width="18" height="18" viewBox="0 0 18 18" fill="none" xmlns="http://www.w3.org/2000/svg">
<g clip-path="url(#clip0_278_363)">
<path d="M8.9978 5.24854V15.746" stroke="white" stroke-width="1.49963" stroke-linecap="round" stroke-linejoin="round"/>
<path d="M2.24933 13.4968C2.05046 13.4968 1.85975 13.4178 1.71913 13.2771C1.57851 13.1365 1.49951 12.9458 1.49951 12.7469V2.99933C1.49951 2.80046 1.57851 2.60975 1.71913 2.46913C1.85975 2.32851 2.05046 2.24951 2.24933 2.24951H5.99841C6.79387 2.24951 7.55674 2.5655 8.11921 3.12798C8.68169 3.69045 8.99768 4.45332 8.99768 5.24878C8.99768 4.45332 9.31367 3.69045 9.87614 3.12798C10.4386 2.5655 11.2015 2.24951 11.9969 2.24951H15.746C15.9449 2.24951 16.1356 2.32851 16.2762 2.46913C16.4168 2.60975 16.4958 2.80046 16.4958 2.99933V12.7469C16.4958 12.9458 16.4168 13.1365 16.2762 13.2771C16.1356 13.4178 15.9449 13.4968 15.746 13.4968H11.2471C10.6505 13.4968 10.0784 13.7338 9.65653 14.1556C9.23467 14.5775 8.99768 15.1496 8.99768 15.7462C8.99768 15.1496 8.76068 14.5775 8.33883 14.1556C7.91698 13.7338 7.34482 13.4968 6.74823 13.4968H2.24933Z" stroke="white" stroke-width="1.49963" stroke-linecap="round" stroke-linejoin="round"/>
</g>
<defs>
<clipPath id="clip0_278_363">
<rect width="17.9956" height="17.9956" fill="white"/>
</clipPath>
</defs>
</svg>
