<svg width="18" height="18" viewBox="0 0 18 18" fill="none" xmlns="http://www.w3.org/2000/svg">
<g clip-path="url(#clip0_2068_1045)">
<path d="M11.2444 1.5H6.74585C6.33177 1.5 5.99609 1.83568 5.99609 2.24975V3.74926C5.99609 4.16334 6.33177 4.49902 6.74585 4.49902H11.2444C11.6585 4.49902 11.9941 4.16334 11.9941 3.74926V2.24975C11.9941 1.83568 11.6585 1.5 11.2444 1.5Z" stroke="#364153" stroke-width="1.49951" stroke-linecap="round" stroke-linejoin="round"/>
<path d="M11.9971 2.99805H13.4966C13.8943 2.99805 14.2757 3.15603 14.5569 3.43724C14.8381 3.71846 14.9961 4.09986 14.9961 4.49756V14.9941C14.9961 15.3918 14.8381 15.7732 14.5569 16.0544C14.2757 16.3356 13.8943 16.4936 13.4966 16.4936H4.49951C4.10181 16.4936 3.72041 16.3356 3.4392 16.0544C3.15798 15.7732 3 15.3918 3 14.9941V4.49756C3 4.09986 3.15798 3.71846 3.4392 3.43724C3.72041 3.15603 4.10181 2.99805 4.49951 2.99805H5.99902" stroke="#364153" stroke-width="1.49951" stroke-linecap="round" stroke-linejoin="round"/>
<path d="M8.99609 8.24805H11.9951" stroke="#364153" stroke-width="1.49951" stroke-linecap="round" stroke-linejoin="round"/>
<path d="M8.99609 11.9961H11.9951" stroke="#364153" stroke-width="1.49951" stroke-linecap="round" stroke-linejoin="round"/>
<path d="M5.99609 8.24805H6.00359" stroke="#364153" stroke-width="1.49951" stroke-linecap="round" stroke-linejoin="round"/>
<path d="M5.99609 11.9961H6.00359" stroke="#364153" stroke-width="1.49951" stroke-linecap="round" stroke-linejoin="round"/>
</g>
<defs>
<clipPath id="clip0_2068_1045">
<rect width="17.9941" height="17.9941" fill="white"/>
</clipPath>
</defs>
</svg>
